<svg version="1.1" id="Layer_1" xmlns="http://www.w3.org/2000/svg" xmlns:xlink="http://www.w3.org/1999/xlink" x="0px" y="0px"
	 width="100%" viewBox="0 0 1289 540" enable-background="new 0 0 1289 540" xml:space="preserve">
<path fill="#010101" opacity="1.000000" stroke="none" 
	d="
M1290.000000,2.000000 
	C1290.000000,181.626083 1290.000000,361.252167 1290.000000,541.000000 
	C862.303955,541.000000 434.607941,541.000000 6.454830,540.537354 
	C5.997754,447.481262 6.004502,354.887817 5.995709,262.294373 
	C5.988007,181.192154 5.962850,100.089943 5.960941,18.521034 
	C5.982475,15.555098 5.961940,13.055459 5.999144,10.556679 
	C6.145797,0.706834 4.681026,2.032416 14.403759,2.031822 
	C439.602509,2.005834 864.801270,2.004398 1290.000000,2.000000 
M632.451355,82.030533 
	C630.947327,81.686073 629.445984,81.057053 627.938904,81.043289 
	C618.107666,80.953522 608.275085,80.997139 598.442993,80.997139 
	C594.189880,80.997139 589.936707,80.997147 585.589905,80.997147 
	C586.535461,153.027649 587.472412,224.404724 588.409363,295.781799 
	C588.033142,295.833160 587.656921,295.884491 587.280762,295.935852 
	C569.411865,224.329498 551.543030,152.723145 533.714600,81.278961 
	C516.157166,81.278961 499.077393,81.278961 481.739258,81.278961 
	C480.098511,96.533684 478.484833,111.536949 476.844910,126.784019 
	C479.480957,126.954620 481.721436,127.099625 484.358826,127.270317 
	C484.358826,227.294739 484.358826,327.023224 484.358826,426.662079 
	C500.188171,426.662079 515.589478,426.662079 531.230225,426.662079 
	C531.230225,356.967438 531.230225,287.613281 531.230225,218.259140 
	C531.441406,218.225662 531.652588,218.192184 531.863770,218.158722 
	C549.756958,287.746033 567.650146,357.333313 585.480652,426.677063 
	C601.433411,426.677063 616.834961,426.677063 632.512146,426.677063 
	C632.512146,311.886597 632.512146,197.421585 632.451355,82.030533 
M191.165649,233.499924 
	C191.165649,297.914856 191.165649,362.329803 191.165649,426.698181 
	C207.186920,426.698181 222.599289,426.698181 238.340652,426.698181 
	C238.340652,393.628235 238.340652,360.860352 238.340652,327.700836 
	C242.304565,327.700836 245.947906,327.851105 249.571793,327.650360 
	C252.184799,327.505615 253.367706,328.360962 254.049774,330.989258 
	C256.220398,339.353516 258.697144,347.638306 261.055206,355.953918 
	C267.754913,379.579926 274.454407,403.206024 281.121643,426.718140 
	C296.981262,426.718140 312.541077,426.718140 328.351440,426.718140 
	C328.085297,425.433441 327.946198,424.453033 327.677490,423.509491 
	C317.897583,389.169769 308.135376,354.824921 298.265289,320.511108 
	C297.361511,317.369110 297.456024,315.263245 300.183136,312.786163 
	C308.710449,305.040680 313.066498,295.178619 313.163544,283.589050 
	C313.266754,271.260559 313.303284,258.931152 313.296143,246.602188 
	C313.272400,205.780502 313.575867,164.954056 313.035553,124.138939 
	C312.716370,100.028145 295.720917,82.191589 271.709106,81.369980 
	C244.261749,80.430817 216.757553,81.152496 188.778381,81.152496 
	C187.142578,96.312576 185.511002,111.433472 183.854568,126.784729 
	C186.508316,126.958145 188.744156,127.104248 191.165649,127.262482 
	C191.165649,162.558395 191.165649,197.529144 191.165649,233.499924 
M1040.665527,408.835602 
	C1042.383545,414.877136 1044.101562,420.918640 1045.740723,426.682861 
	C1061.765625,426.682861 1077.304932,426.682861 1093.072754,426.682861 
	C1092.824341,425.695038 1092.681396,425.057098 1092.503296,424.429169 
	C1082.619873,389.596924 1072.781250,354.751862 1062.762939,319.958435 
	C1061.906982,316.985870 1062.171875,315.221039 1064.518677,313.091553 
	C1073.500488,304.941223 1077.896118,294.543610 1077.916626,282.500458 
	C1078.005615,230.188461 1077.994263,177.876160 1077.915161,125.564140 
	C1077.902466,117.131065 1076.061035,109.000237 1071.440308,101.811447 
	C1062.536377,87.959190 1049.471924,81.254578 1033.255493,81.091881 
	C1007.268738,80.831161 981.277527,81.008926 955.288147,81.019608 
	C954.666321,81.019867 954.044617,81.235306 953.300049,81.373108 
	C951.685181,96.551300 950.089478,111.548775 948.468506,126.783768 
	C951.028625,126.932648 953.281677,127.063667 955.915344,127.216827 
	C955.915344,227.249100 955.915344,326.946350 955.915344,426.724731 
	C971.724060,426.724731 987.120850,426.724731 1003.036621,426.724731 
	C1003.036621,393.574097 1003.036621,360.695953 1003.036621,327.922546 
	C1008.193176,327.922546 1012.826172,327.922546 1017.691040,327.922546 
	C1025.279419,354.736572 1032.827393,381.407593 1040.665527,408.835602 
M921.268799,92.242096 
	C913.537476,84.516693 904.119019,79.830948 893.329285,79.436363 
	C877.364563,78.852516 861.351013,78.965820 845.382019,79.496727 
	C840.228271,79.668068 834.794312,81.352036 830.099304,83.612633 
	C812.236389,92.213425 805.047302,107.285202 805.060913,126.569946 
	C805.119446,209.701721 805.085693,292.833557 805.087036,375.965393 
	C805.087097,378.963989 805.022888,381.965332 805.124207,384.960785 
	C806.004700,411.004608 823.606445,428.492798 849.669617,428.955750 
	C862.826416,429.189453 875.994141,429.168915 889.151367,428.940887 
	C915.634766,428.481903 933.610657,410.595886 933.660767,384.027130 
	C933.824280,297.397064 933.756348,210.766510 933.682312,124.136208 
	C933.672180,112.269760 930.207886,101.514191 921.268799,92.242096 
M462.076111,160.500015 
	C462.047638,147.503311 462.276581,134.499771 461.932770,121.511414 
	C461.361206,99.919823 446.279083,82.160599 424.747742,80.096794 
	C407.749634,78.467506 390.496674,79.455940 373.356537,79.400383 
	C371.231171,79.393494 369.072845,79.994171 366.981476,80.519104 
	C346.071411,85.767494 333.717377,102.217064 333.708984,125.027016 
	C333.677368,211.175110 333.694977,297.323212 333.704956,383.471313 
	C333.705170,385.301483 333.782806,387.135345 333.912689,388.961212 
	C335.353577,409.216400 349.581238,425.862610 369.702667,427.758667 
	C387.200439,429.407471 404.949646,428.832184 422.574066,428.504547 
	C431.347992,428.341431 439.427399,424.818237 446.316711,419.148743 
	C458.194183,409.374268 462.123383,396.315399 462.108826,381.452606 
	C462.036926,308.135132 462.076111,234.817566 462.076111,160.500015 
M362.500000,444.159607 
	C277.709473,444.159607 192.918930,444.159607 107.794434,444.159607 
	C107.794434,454.254639 107.794434,463.987457 107.794434,473.757568 
	C480.244476,473.757568 852.439514,473.757568 1224.656250,473.757568 
	C1224.656250,463.806946 1224.656250,454.105560 1224.656250,444.159637 
	C937.349976,444.159637 650.424988,444.159637 362.500000,444.159607 
M781.670471,112.020348 
	C776.339111,93.530182 764.226624,81.812721 745.140015,80.043678 
	C728.299988,78.482849 711.140625,78.401344 694.270508,79.657593 
	C675.566589,81.050407 662.360596,91.581009 656.798828,109.894463 
	C654.952942,115.972580 654.614502,122.689819 654.603882,129.116547 
	C654.466614,212.266174 654.507629,295.416107 654.531128,378.565948 
	C654.532166,382.226379 654.677795,385.895905 654.958618,389.545624 
	C656.489929,409.450256 670.885986,425.802246 690.775635,427.813690 
	C706.453125,429.399139 722.365784,429.051727 738.168579,428.918121 
	C765.224915,428.689423 782.992737,410.411102 783.010010,383.350464 
	C783.031616,349.523987 783.015198,315.697479 783.015198,281.871002 
	C783.015198,280.263245 783.015198,278.655487 783.015198,277.193359 
	C767.067139,277.193359 751.680237,277.193359 736.082703,277.193359 
	C736.082703,278.703064 736.082703,279.850555 736.082703,280.998047 
	C736.082703,313.324860 736.027161,345.651855 736.155701,377.978149 
	C736.171021,381.836060 735.208191,383.266541 731.115295,383.093964 
	C723.297485,382.764282 715.441956,382.716888 707.629211,383.102081 
	C702.818420,383.339294 701.400818,381.861115 701.422546,377.000946 
	C701.603638,336.509918 701.525269,296.017792 701.525269,255.525970 
	C701.525269,213.867737 701.584473,172.209274 701.438232,130.551559 
	C701.422729,126.150719 702.726990,124.730453 707.124451,124.911415 
	C714.942932,125.233154 722.795837,125.257706 730.611511,124.903511 
	C735.129639,124.698769 736.196533,126.281273 736.173462,130.596497 
	C736.004822,162.089218 736.082581,193.583267 736.082581,225.076889 
	C736.082581,226.877548 736.082642,228.678207 736.082642,230.761719 
	C751.798462,232.425095 767.142517,234.049133 783.015198,235.729111 
	C783.015198,233.811661 783.015198,232.015793 783.015198,230.219910 
	C783.015198,196.560059 783.065552,162.900040 782.964600,129.240494 
	C782.948181,123.770065 782.261719,118.301651 781.670471,112.020348 
M1203.599365,247.082352 
	C1204.131104,241.828384 1204.662720,236.574417 1205.254272,230.729065 
	C1186.606079,230.729065 1168.385498,230.729065 1150.181641,230.729065 
	C1150.181641,195.907364 1150.181641,161.645920 1150.181641,126.903069 
	C1170.279541,126.903069 1190.161865,126.903069 1210.255005,126.903069 
	C1211.916748,111.442078 1213.529785,96.435043 1215.154053,81.323204 
	C1176.753540,81.323204 1138.701538,81.323204 1100.471191,81.323204 
	C1098.846558,96.605019 1097.254028,111.583908 1095.639526,126.770348 
	C1098.411133,126.955513 1100.641846,127.104538 1103.230469,127.277473 
	C1103.230469,227.342545 1103.230469,327.063660 1103.230469,426.821472 
	C1139.405273,426.821472 1175.188721,426.821472 1211.239136,426.821472 
	C1212.554688,411.611206 1213.856689,396.555664 1215.206665,380.947723 
	C1193.298706,380.947723 1171.742920,380.947723 1150.208008,380.947723 
	C1150.208008,346.007721 1150.208008,311.593903 1150.208008,276.681793 
	C1167.001953,276.681793 1183.553467,276.681793 1200.366943,276.681793 
	C1201.427612,266.806335 1202.438599,257.392578 1203.599365,247.082352 
M161.356171,427.001465 
	C163.111115,427.001465 164.866058,427.001465 166.477966,427.001465 
	C166.477966,311.262634 166.477966,196.209244 166.477966,81.318703 
	C149.854538,81.318703 133.589142,81.318703 117.293289,81.318703 
	C115.664581,96.620667 114.069221,111.609360 112.456200,126.763901 
	C115.090393,126.952644 117.341499,127.113937 120.002853,127.304634 
	C120.002853,227.345856 120.002853,327.061340 120.002853,427.001465 
	C133.764542,427.001465 147.076538,427.001465 161.356171,427.001465 
z"/>
<path fill="#191919" opacity="1.000000" stroke="none" 
	d="
M5.945403,18.987728 
	C5.962850,100.089943 5.988007,181.192154 5.995709,262.294373 
	C6.004502,354.887817 5.997754,447.481262 5.998879,540.537354 
	C4.334682,541.000000 2.669364,541.000000 1.002023,541.000000 
	C1.000000,367.641754 1.000000,194.283524 1.362721,20.424486 
	C3.132096,19.611706 4.538749,19.299717 5.945403,18.987728 
z"/>
<path fill="#1E1E1E" opacity="1.000000" stroke="none" 
	d="
M5.960941,18.521034 
	C4.538749,19.299717 3.132096,19.611706 1.362721,19.961847 
	C1.000000,13.666667 1.000000,7.333333 1.000000,1.000000 
	C430.666656,1.000000 860.333313,1.000000 1290.000000,1.500000 
	C864.801270,2.004398 439.602509,2.005834 14.403759,2.031822 
	C4.681026,2.032416 6.145797,0.706834 5.999144,10.556679 
	C5.961940,13.055459 5.982475,15.555098 5.960941,18.521034 
z"/>
<path fill="#FDFDFD" opacity="1.000000" stroke="none" 
	d="
M632.481750,82.493561 
	C632.512146,197.421585 632.512146,311.886597 632.512146,426.677063 
	C616.834961,426.677063 601.433411,426.677063 585.480652,426.677063 
	C567.650146,357.333313 549.756958,287.746033 531.863770,218.158722 
	C531.652588,218.192184 531.441406,218.225662 531.230225,218.259140 
	C531.230225,287.613281 531.230225,356.967438 531.230225,426.662079 
	C515.589478,426.662079 500.188171,426.662079 484.358826,426.662079 
	C484.358826,327.023224 484.358826,227.294739 484.358826,127.270317 
	C481.721436,127.099625 479.480957,126.954620 476.844910,126.784019 
	C478.484833,111.536949 480.098511,96.533684 481.739258,81.278961 
	C499.077393,81.278961 516.157166,81.278961 533.714600,81.278961 
	C551.543030,152.723145 569.411865,224.329498 587.280762,295.935852 
	C587.656921,295.884491 588.033142,295.833160 588.409363,295.781799 
	C587.472412,224.404724 586.535461,153.027649 585.589905,80.997147 
	C589.936707,80.997147 594.189880,80.997139 598.442993,80.997139 
	C608.275085,80.997139 618.107666,80.953522 627.938904,81.043289 
	C629.445984,81.057053 630.947327,81.686073 632.481750,82.493561 
z"/>
<path fill="#FEFEFE" opacity="1.000000" stroke="none" 
	d="
M191.165649,232.999908 
	C191.165649,197.529144 191.165649,162.558395 191.165649,127.262482 
	C188.744156,127.104248 186.508316,126.958145 183.854568,126.784729 
	C185.511002,111.433472 187.142578,96.312576 188.778381,81.152496 
	C216.757553,81.152496 244.261749,80.430817 271.709106,81.369980 
	C295.720917,82.191589 312.716370,100.028145 313.035553,124.138939 
	C313.575867,164.954056 313.272400,205.780502 313.296143,246.602188 
	C313.303284,258.931152 313.266754,271.260559 313.163544,283.589050 
	C313.066498,295.178619 308.710449,305.040680 300.183136,312.786163 
	C297.456024,315.263245 297.361511,317.369110 298.265289,320.511108 
	C308.135376,354.824921 317.897583,389.169769 327.677490,423.509491 
	C327.946198,424.453033 328.085297,425.433441 328.351440,426.718140 
	C312.541077,426.718140 296.981262,426.718140 281.121643,426.718140 
	C274.454407,403.206024 267.754913,379.579926 261.055206,355.953918 
	C258.697144,347.638306 256.220398,339.353516 254.049774,330.989258 
	C253.367706,328.360962 252.184799,327.505615 249.571793,327.650360 
	C245.947906,327.851105 242.304565,327.700836 238.340652,327.700836 
	C238.340652,360.860352 238.340652,393.628235 238.340652,426.698181 
	C222.599289,426.698181 207.186920,426.698181 191.165649,426.698181 
	C191.165649,362.329803 191.165649,297.914856 191.165649,232.999908 
M266.305664,235.500153 
	C266.305664,216.170303 266.305664,196.840469 266.305634,177.510620 
	C266.305573,162.180054 266.312408,146.849472 266.297516,131.518921 
	C266.295441,129.382294 266.695862,126.972130 263.290985,126.988708 
	C255.019943,127.028976 246.748566,127.001808 238.567093,127.001808 
	C238.567093,178.931778 238.567093,230.296616 238.567093,281.835724 
	C246.466370,281.835724 253.963211,281.705017 261.452118,281.891785 
	C265.103271,281.982880 266.422821,280.734650 266.374237,276.991974 
	C266.198944,263.496674 266.305573,249.997726 266.305664,235.500153 
z"/>
<path fill="#FEFEFE" opacity="1.000000" stroke="none" 
	d="
M1040.520508,408.457092 
	C1032.827393,381.407593 1025.279419,354.736572 1017.691040,327.922546 
	C1012.826172,327.922546 1008.193176,327.922546 1003.036621,327.922546 
	C1003.036621,360.695953 1003.036621,393.574097 1003.036621,426.724731 
	C987.120850,426.724731 971.724060,426.724731 955.915344,426.724731 
	C955.915344,326.946350 955.915344,227.249100 955.915344,127.216827 
	C953.281677,127.063667 951.028625,126.932648 948.468506,126.783768 
	C950.089478,111.548775 951.685181,96.551300 953.300049,81.373108 
	C954.044617,81.235306 954.666321,81.019867 955.288147,81.019608 
	C981.277527,81.008926 1007.268738,80.831161 1033.255493,81.091881 
	C1049.471924,81.254578 1062.536377,87.959190 1071.440308,101.811447 
	C1076.061035,109.000237 1077.902466,117.131065 1077.915161,125.564140 
	C1077.994263,177.876160 1078.005615,230.188461 1077.916626,282.500458 
	C1077.896118,294.543610 1073.500488,304.941223 1064.518677,313.091553 
	C1062.171875,315.221039 1061.906982,316.985870 1062.762939,319.958435 
	C1072.781250,354.751862 1082.619873,389.596924 1092.503296,424.429169 
	C1092.681396,425.057098 1092.824341,425.695038 1093.072754,426.682861 
	C1077.304932,426.682861 1061.765625,426.682861 1045.740723,426.682861 
	C1044.101562,420.918640 1042.383545,414.877136 1040.520508,408.457092 
M1030.950684,204.500000 
	C1030.950562,180.342957 1030.962891,156.185883 1030.930054,132.028885 
	C1030.927002,129.838577 1031.702026,127.002655 1027.917969,127.002098 
	C1019.642700,127.000877 1011.367432,127.001724 1003.249268,127.001724 
	C1003.249268,178.906006 1003.249268,230.262817 1003.249268,281.834290 
	C1010.955750,281.834290 1018.274658,281.672119 1025.581665,281.898102 
	C1029.648315,282.023895 1031.074341,280.721313 1031.040649,276.471130 
	C1030.853027,252.815338 1030.950684,229.157272 1030.950684,204.500000 
z"/>
<path fill="#FEFEFE" opacity="1.000000" stroke="none" 
	d="
M921.517090,92.496094 
	C930.207886,101.514191 933.672180,112.269760 933.682312,124.136208 
	C933.756348,210.766510 933.824280,297.397064 933.660767,384.027130 
	C933.610657,410.595886 915.634766,428.481903 889.151367,428.940887 
	C875.994141,429.168915 862.826416,429.189453 849.669617,428.955750 
	C823.606445,428.492798 806.004700,411.004608 805.124207,384.960785 
	C805.022888,381.965332 805.087097,378.963989 805.087036,375.965393 
	C805.085693,292.833557 805.119446,209.701721 805.060913,126.569946 
	C805.047302,107.285202 812.236389,92.213425 830.099304,83.612633 
	C834.794312,81.352036 840.228271,79.668068 845.382019,79.496727 
	C861.351013,78.965820 877.364563,78.852516 893.329285,79.436363 
	C904.119019,79.830948 913.537476,84.516693 921.517090,92.496094 
M886.853333,276.500061 
	C886.853333,228.040649 886.797363,179.581070 886.942566,131.122101 
	C886.956665,126.430893 885.797729,124.617722 880.820496,124.887947 
	C873.182800,125.302620 865.492554,125.270294 857.850647,124.896477 
	C853.116760,124.664909 851.974121,126.316277 851.988647,130.874008 
	C852.142334,178.999893 852.083862,227.126434 852.083862,275.252808 
	C852.083862,309.390869 852.141663,343.529175 852.007202,377.666718 
	C851.991211,381.727722 853.040527,383.271240 857.322266,383.094604 
	C865.135742,382.772278 872.986816,382.712158 880.793457,383.109039 
	C885.702271,383.358582 886.976257,381.676971 886.949951,376.916260 
	C886.766968,343.778381 886.853333,310.638977 886.853333,276.500061 
z"/>
<path fill="#FEFEFE" opacity="1.000000" stroke="none" 
	d="
M462.076111,161.000031 
	C462.076111,234.817566 462.036926,308.135132 462.108826,381.452606 
	C462.123383,396.315399 458.194183,409.374268 446.316711,419.148743 
	C439.427399,424.818237 431.347992,428.341431 422.574066,428.504547 
	C404.949646,428.832184 387.200439,429.407471 369.702667,427.758667 
	C349.581238,425.862610 335.353577,409.216400 333.912689,388.961212 
	C333.782806,387.135345 333.705170,385.301483 333.704956,383.471313 
	C333.694977,297.323212 333.677368,211.175110 333.708984,125.027016 
	C333.717377,102.217064 346.071411,85.767494 366.981476,80.519104 
	C369.072845,79.994171 371.231171,79.393494 373.356537,79.400383 
	C390.496674,79.455940 407.749634,78.467506 424.747742,80.096794 
	C446.279083,82.160599 461.361206,99.919823 461.932770,121.511414 
	C462.276581,134.499771 462.047638,147.503311 462.076111,161.000031 
M380.511932,375.423828 
	C380.517395,382.996948 380.517395,382.997040 388.070007,382.997223 
	C395.067963,382.997375 402.082397,382.705292 409.058228,383.098175 
	C413.843658,383.367676 415.195435,381.892761 415.181549,377.045929 
	C415.014709,318.896698 415.073700,260.746796 415.073700,202.597092 
	C415.073700,178.604080 414.975311,154.610306 415.165436,130.618805 
	C415.199249,126.352951 414.239563,124.667709 409.662048,124.902443 
	C402.350067,125.277390 395.004822,125.002205 387.673615,125.002892 
	C380.516510,125.003555 380.512604,125.004112 380.512512,132.007965 
	C380.511597,212.817734 380.511932,293.627502 380.511932,375.423828 
z"/>
<path fill="#78D5BC" opacity="1.000000" stroke="none" 
	d="
M363.000000,444.159607 
	C650.424988,444.159637 937.349976,444.159637 1224.656250,444.159637 
	C1224.656250,454.105560 1224.656250,463.806946 1224.656250,473.757568 
	C852.439514,473.757568 480.244476,473.757568 107.794434,473.757568 
	C107.794434,463.987457 107.794434,454.254639 107.794434,444.159607 
	C192.918930,444.159607 277.709473,444.159607 363.000000,444.159607 
z"/>
<path fill="#FDFDFD" opacity="1.000000" stroke="none" 
	d="
M781.777710,112.426331 
	C782.261719,118.301651 782.948181,123.770065 782.964600,129.240494 
	C783.065552,162.900040 783.015198,196.560059 783.015198,230.219910 
	C783.015198,232.015793 783.015198,233.811661 783.015198,235.729111 
	C767.142517,234.049133 751.798462,232.425095 736.082642,230.761719 
	C736.082642,228.678207 736.082581,226.877548 736.082581,225.076889 
	C736.082581,193.583267 736.004822,162.089218 736.173462,130.596497 
	C736.196533,126.281273 735.129639,124.698769 730.611511,124.903511 
	C722.795837,125.257706 714.942932,125.233154 707.124451,124.911415 
	C702.726990,124.730453 701.422729,126.150719 701.438232,130.551559 
	C701.584473,172.209274 701.525269,213.867737 701.525269,255.525970 
	C701.525269,296.017792 701.603638,336.509918 701.422546,377.000946 
	C701.400818,381.861115 702.818420,383.339294 707.629211,383.102081 
	C715.441956,382.716888 723.297485,382.764282 731.115295,383.093964 
	C735.208191,383.266541 736.171021,381.836060 736.155701,377.978149 
	C736.027161,345.651855 736.082703,313.324860 736.082703,280.998047 
	C736.082703,279.850555 736.082703,278.703064 736.082703,277.193359 
	C751.680237,277.193359 767.067139,277.193359 783.015198,277.193359 
	C783.015198,278.655487 783.015198,280.263245 783.015198,281.871002 
	C783.015198,315.697479 783.031616,349.523987 783.010010,383.350464 
	C782.992737,410.411102 765.224915,428.689423 738.168579,428.918121 
	C722.365784,429.051727 706.453125,429.399139 690.775635,427.813690 
	C670.885986,425.802246 656.489929,409.450256 654.958618,389.545624 
	C654.677795,385.895905 654.532166,382.226379 654.531128,378.565948 
	C654.507629,295.416107 654.466614,212.266174 654.603882,129.116547 
	C654.614502,122.689819 654.952942,115.972580 656.798828,109.894463 
	C662.360596,91.581009 675.566589,81.050407 694.270508,79.657593 
	C711.140625,78.401344 728.299988,78.482849 745.140015,80.043678 
	C764.226624,81.812721 776.339111,93.530182 781.777710,112.426331 
z"/>
<path fill="#FEFEFE" opacity="1.000000" stroke="none" 
	d="
M1203.524414,247.530594 
	C1202.438599,257.392578 1201.427612,266.806335 1200.366943,276.681793 
	C1183.553467,276.681793 1167.001953,276.681793 1150.208008,276.681793 
	C1150.208008,311.593903 1150.208008,346.007721 1150.208008,380.947723 
	C1171.742920,380.947723 1193.298706,380.947723 1215.206665,380.947723 
	C1213.856689,396.555664 1212.554688,411.611206 1211.239136,426.821472 
	C1175.188721,426.821472 1139.405273,426.821472 1103.230469,426.821472 
	C1103.230469,327.063660 1103.230469,227.342545 1103.230469,127.277473 
	C1100.641846,127.104538 1098.411133,126.955513 1095.639526,126.770348 
	C1097.254028,111.583908 1098.846558,96.605019 1100.471191,81.323204 
	C1138.701538,81.323204 1176.753540,81.323204 1215.154053,81.323204 
	C1213.529785,96.435043 1211.916748,111.442078 1210.255005,126.903069 
	C1190.161865,126.903069 1170.279541,126.903069 1150.181641,126.903069 
	C1150.181641,161.645920 1150.181641,195.907364 1150.181641,230.729065 
	C1168.385498,230.729065 1186.606079,230.729065 1205.254272,230.729065 
	C1204.662720,236.574417 1204.131104,241.828384 1203.524414,247.530594 
z"/>
<path fill="#FEFEFE" opacity="1.000000" stroke="none" 
	d="
M160.872360,427.001465 
	C147.076538,427.001465 133.764542,427.001465 120.002853,427.001465 
	C120.002853,327.061340 120.002853,227.345856 120.002853,127.304634 
	C117.341499,127.113937 115.090393,126.952644 112.456200,126.763901 
	C114.069221,111.609360 115.664581,96.620667 117.293289,81.318703 
	C133.589142,81.318703 149.854538,81.318703 166.477966,81.318703 
	C166.477966,196.209244 166.477966,311.262634 166.477966,427.001465 
	C164.866058,427.001465 163.111115,427.001465 160.872360,427.001465 
z"/>
<path fill="#030303" opacity="1.000000" stroke="none" 
	d="
M266.305664,236.000153 
	C266.305573,249.997726 266.198944,263.496674 266.374237,276.991974 
	C266.422821,280.734650 265.103271,281.982880 261.452118,281.891785 
	C253.963211,281.705017 246.466370,281.835724 238.567093,281.835724 
	C238.567093,230.296616 238.567093,178.931778 238.567093,127.001808 
	C246.748566,127.001808 255.019943,127.028976 263.290985,126.988708 
	C266.695862,126.972130 266.295441,129.382294 266.297516,131.518921 
	C266.312408,146.849472 266.305573,162.180054 266.305634,177.510620 
	C266.305664,196.840469 266.305664,216.170303 266.305664,236.000153 
z"/>
<path fill="#020202" opacity="1.000000" stroke="none" 
	d="
M1030.950684,205.000000 
	C1030.950684,229.157272 1030.853027,252.815338 1031.040649,276.471130 
	C1031.074341,280.721313 1029.648315,282.023895 1025.581665,281.898102 
	C1018.274658,281.672119 1010.955750,281.834290 1003.249268,281.834290 
	C1003.249268,230.262817 1003.249268,178.906006 1003.249268,127.001724 
	C1011.367432,127.001724 1019.642700,127.000877 1027.917969,127.002098 
	C1031.702026,127.002655 1030.927002,129.838577 1030.930054,132.028885 
	C1030.962891,156.185883 1030.950562,180.342957 1030.950684,205.000000 
z"/>
<path fill="#030303" opacity="1.000000" stroke="none" 
	d="
M886.853333,277.000061 
	C886.853333,310.638977 886.766968,343.778381 886.949951,376.916260 
	C886.976257,381.676971 885.702271,383.358582 880.793457,383.109039 
	C872.986816,382.712158 865.135742,382.772278 857.322266,383.094604 
	C853.040527,383.271240 851.991211,381.727722 852.007202,377.666718 
	C852.141663,343.529175 852.083862,309.390869 852.083862,275.252808 
	C852.083862,227.126434 852.142334,178.999893 851.988647,130.874008 
	C851.974121,126.316277 853.116760,124.664909 857.850647,124.896477 
	C865.492554,125.270294 873.182800,125.302620 880.820496,124.887947 
	C885.797729,124.617722 886.956665,126.430893 886.942566,131.122101 
	C886.797363,179.581070 886.853333,228.040649 886.853333,277.000061 
z"/>
<path fill="#000000" opacity="1.000000" stroke="none" 
	d="
M380.511902,374.930542 
	C380.511932,293.627502 380.511597,212.817734 380.512512,132.007965 
	C380.512604,125.004112 380.516510,125.003555 387.673615,125.002892 
	C395.004822,125.002205 402.350067,125.277390 409.662048,124.902443 
	C414.239563,124.667709 415.199249,126.352951 415.165436,130.618805 
	C414.975311,154.610306 415.073700,178.604080 415.073700,202.597092 
	C415.073700,260.746796 415.014709,318.896698 415.181549,377.045929 
	C415.195435,381.892761 413.843658,383.367676 409.058228,383.098175 
	C402.082397,382.705292 395.067963,382.997375 388.070007,382.997223 
	C380.517395,382.997040 380.517395,382.996948 380.511902,374.930542 
z"/>
</svg>